<?xml version="1.0" encoding="utf-8" ?>
<svg xmlns="http://www.w3.org/2000/svg" xmlns:xlink="http://www.w3.org/1999/xlink" width="1024" height="1024">
	<path transform="scale(1.6 1.6)" d="M150.14 145.06C161.783 144.177 164.264 161.683 152.269 162.711C141.194 163.167 139.269 147.495 150.14 145.06Z"/>
	<path transform="scale(1.6 1.6)" d="M519.905 294.15C526.78 276.776 548.038 301.606 528.823 307.133C521.349 306.031 519.059 301.285 519.905 294.15Z"/>
	<path transform="scale(1.6 1.6)" d="M411.542 129.262C418.035 120.69 431.148 126.703 427.98 137.493C425.829 140.21 424.05 142.028 420.566 143.049L419.92 143.245C412.362 141.852 408.716 136.438 411.542 129.262Z"/>
	<path transform="scale(1.6 1.6)" d="M528.516 323.816C544.557 323.812 537.927 361.763 527.89 362.957C523.987 362.265 521.825 360.781 519.747 357.239C519.242 347.817 518.485 328.208 528.516 323.816Z"/>
	<path fill="#FFD59D" transform="scale(1.6 1.6)" d="M419.92 143.245L420.566 143.049C424.05 142.028 425.829 140.21 427.98 137.493C430.796 137.425 433.688 137.227 436.41 138.099C444.362 140.648 466.812 155.381 472.195 161.828C468.844 169.972 465.706 178.214 461.923 186.171C455.231 182.028 441.79 166.754 435.304 160.507C431.422 156.768 417.256 147.179 419.92 143.245Z"/>
	<path transform="scale(1.6 1.6)" d="M196.912 498.814C205.968 497.782 212.032 504.604 219.525 508.928C235.799 518.321 253.464 525.558 271.528 530.691C285.117 534.553 286.524 537.285 284.127 551.709C285.974 552.832 287.867 553.706 289.847 554.568C293.779 557.188 296.805 562.65 294.341 567.338C279.104 580.918 266.132 564.869 267.358 547.093C251.243 542.464 204.948 524.093 192.725 511.92C191.25 506.612 192.367 502.277 196.912 498.814Z"/>
	<path fill="white" transform="scale(1.6 1.6)" d="M498.858 292.539C500.638 287.711 492.939 277.594 498.143 273.928C500.845 273.158 517.37 280.568 521.191 282.099L521.042 282.532L521.612 282.876C521.926 284.784 521.518 287.735 522.402 289.314L522.332 289.831C520.94 290.47 520.422 291.526 519.765 292.835C517.76 293.956 504.021 289.33 499.861 289.683L499.88 290.055C504.909 291.181 515.736 291.509 519.905 294.15C519.059 301.285 521.349 306.031 528.823 307.133L528.336 307.474C527.506 312.693 529.731 318.705 528.516 323.816C518.485 328.208 519.242 347.817 519.747 357.239C521.825 360.781 523.987 362.265 527.89 362.957C528.523 366.285 521.675 397.278 519.902 402.519C518.445 402.172 516.872 402.144 515.38 402.025C508.473 387.486 502.733 372.399 497.011 357.36C501.852 335.842 502.092 314.278 498.858 292.539Z"/>
	<path transform="scale(1.6 1.6)" d="M295.547 105.065C297.522 98.848 300.738 92.6061 303.197 86.5114C306.092 79.3341 310.995 59.5563 319.24 57.1489C328.131 54.5526 331.799 72.2009 333.913 77.6608C337.475 86.861 341.843 96.1069 344.496 105.608C353.678 107.041 362.875 108.384 372.032 109.973C381.131 111.551 389.798 110.156 388.67 122.056C382.498 133.305 369.927 126.645 359.136 124.815C325.132 119.047 335.211 124.601 320.269 88.9693C307.596 119.257 315.448 119.217 287.179 123.189C260.492 126.939 233.622 134.824 210.569 149.113C202.756 153.955 190.673 164.145 187.234 147.324C189.09 141.154 199.231 136.459 204.318 133.471C232.45 116.946 263.182 108.253 295.547 105.065Z"/>
	<path transform="scale(1.6 1.6)" d="M481.103 147.282C486.698 146.728 489.729 147.034 492.127 152.345C497.552 164.358 500.612 177.112 507.007 188.844C515.413 191.698 535.114 192.48 545.369 193.937C551.304 194.78 562.614 196.733 559.493 205.864C557.307 212.259 531.898 234.632 524.95 239.885C526.673 245.326 534.289 271.956 531.945 276.876C525.901 289.561 508.694 274.477 497.602 272.772C492.375 271.969 498.082 289.494 498.858 292.539C502.092 314.278 501.852 335.842 497.011 357.36C502.733 372.399 508.473 387.486 515.38 402.025C516.872 402.144 518.445 402.172 519.902 402.519L540.355 405.768C547.3 406.823 561.134 407.237 558.971 418.106C557.637 424.808 531.259 445.224 524.936 450.278C526.855 457.256 533.721 484.365 533.908 491.063C534.066 496.766 527.361 500.452 522.322 498.78C511.908 495.325 498.065 484.269 485.449 479.407L485.109 479.638C475.75 486.114 466.859 494.698 457.878 501.83C438.194 517.464 415.769 530.618 392.513 540.253C389.087 541.672 382.346 542.28 381.578 546.575C380.571 552.203 379.217 555.537 374.467 558.936C370.581 561.718 348.19 572.431 344.3 566.71C346.177 556.275 341.636 558.342 351.938 551.192C356.272 548.949 360.462 546.618 364.14 543.38C363.789 538.82 363.869 536.724 367.498 533.337C366.572 531.729 365.484 529.186 363.897 528.284C373.984 523.529 393.882 506.251 396.687 495.688C405.042 491.964 429.566 483.53 431.703 473.478C433.887 470.352 442.88 467.499 446.503 466.676C451.695 465.566 446.082 437.383 451.12 428.218C452.848 425.075 447.666 424.006 446.931 420.88C439.109 435.633 422.229 422.933 429.346 411.098C434.439 402.629 450.995 402.882 459.811 400.814C466.979 391.084 472.314 370.566 477.921 358.409C479.15 355.745 481.339 353.405 482.213 350.602C489.12 328.44 481.973 294.263 481.371 270.886C473.944 274.506 443.868 294.116 437.864 294.113C423.771 294.109 432.568 272.33 434.212 265.752C435.665 259.942 439.867 229.444 452.294 245.16C455.962 249.799 451.208 263.503 450.445 269.196C458.067 266.443 466.977 260.244 473.992 255.883C488.77 246.697 485.129 249.223 499.064 255.518C503.931 257.717 508.947 259.614 513.847 261.752C509.472 248.043 504.794 239.412 514.477 227.841C510.513 221.115 504.662 211.357 498.443 206.52C491.476 201.101 483.424 198.787 477.219 192.129L476.625 192.898L476.1 192.733C470.759 198.198 461.75 194.29 461.531 186.63L461.923 186.171C465.706 178.214 468.844 169.972 472.195 161.828C474.431 156.593 476.263 150.673 481.103 147.282Z"/>
	<path fill="#F6A68E" transform="scale(1.6 1.6)" d="M482.967 177.813C498.872 214.261 500.74 200.51 532.912 209.583C527.511 216.233 520.411 221.62 514.477 227.841C510.513 221.115 504.662 211.357 498.443 206.52C491.476 201.101 483.424 198.787 477.219 192.129L476.625 192.898L476.1 192.733C479.055 188.054 481.081 182.997 482.967 177.813Z"/>
	<path fill="white" transform="scale(1.6 1.6)" d="M446.503 466.676C450.564 467.189 459.697 473.418 462.784 475.911C434.991 497.36 416.945 510.691 383.42 525.598C378.048 527.987 372.481 530.189 367.498 533.337C366.572 531.729 365.484 529.186 363.897 528.284C373.984 523.529 393.882 506.251 396.687 495.688C405.042 491.964 429.566 483.53 431.703 473.478C433.887 470.352 442.88 467.499 446.503 466.676Z"/>
	<path fill="#FEB567" transform="scale(1.6 1.6)" d="M446.931 420.88C450.286 416.675 467.492 419.765 472.699 412.864C477.37 406.673 484.183 386.074 487.709 378.034C490.372 384.705 500.439 413.75 506.208 416.22C511.401 418.444 526.265 420.25 532.584 421.069C508.515 443.716 501.811 438.885 513.655 474.923C506.981 470.474 493.19 462.324 485.769 460.059C477.394 463.197 469.775 470.379 462.784 475.911C459.697 473.418 450.564 467.189 446.503 466.676C451.695 465.566 446.082 437.383 451.12 428.218C452.848 425.075 447.666 424.006 446.931 420.88Z"/>
	<path transform="scale(1.6 1.6)" d="M158.482 163.651C166.542 166.319 171.604 195.236 177.004 198.742C175.658 204.759 179.288 207.977 184.551 210.137C188.871 220.298 193.779 229.97 193.599 241.325C203.263 241.797 202.307 250.595 204.07 257.809C205.264 262.697 218.678 296.072 202.84 294.004C195.423 293.035 168.512 275.421 160.438 270.636C158.053 283.457 151.976 342.77 158.958 353.335C168.144 367.236 172.914 391.278 181.506 401.269L181.958 401.393C192.551 404.228 208.42 402.719 215.084 413.544C220.503 422.346 209.908 428.583 204.347 433.785C199.4 438.412 192.013 446.652 186.654 449.771C191.342 452.956 195.911 456.04 199.781 460.24C202.112 462.769 204.633 467.233 207.331 469.107C210.188 481.11 215.87 481.609 225.707 486.858C239.391 494.159 277.56 509.624 293.567 506.178C301.192 504.537 316.659 468.353 320.265 460.107C323.216 467.509 338.659 503.455 345.625 506.149C354.261 509.488 387.46 499.023 396.687 495.688C393.882 506.251 373.984 523.529 363.897 528.284C365.484 529.186 366.572 531.729 367.498 533.337C363.869 536.724 363.789 538.82 364.14 543.38C360.462 546.618 356.272 548.949 351.938 551.192C341.636 558.342 346.177 556.275 344.3 566.71C338.591 566.437 333.081 580.421 319.826 579.93C313.426 579.693 298.163 573.229 294.341 567.338C296.805 562.65 293.779 557.188 289.847 554.568C287.867 553.706 285.974 552.832 284.127 551.709C286.524 537.285 285.117 534.553 271.528 530.691C253.464 525.558 235.799 518.321 219.525 508.928C212.032 504.604 205.968 497.782 196.912 498.814C178.678 487.386 183.909 496.171 170.986 477.658L170.735 477.302C167.145 480.864 159.754 479.668 155.771 477.603C147.35 483.045 123.864 497.681 114.356 499.791C101.164 495.625 107.809 483.234 110.187 473.626C112.089 465.945 113.792 458.242 115.354 450.485C106.025 440.92 91.095 431.644 83.3226 422.025C72.8499 409.065 94.0794 406.566 101.383 405.395L123.818 401.794C121.554 395.522 121.072 384.58 119.681 377.632C119.205 375.253 116.573 363.326 115.912 361.367C104.747 365.515 103.908 348.88 103.255 342.289C100.405 313.505 105.109 268.857 114.688 240.674C106.337 233.101 86.6577 215.079 80.986 206.571C80.2419 195.098 87.63 194.968 96.5878 193.647L117.519 190.554C126.187 189.265 131.361 190.376 135.965 181.975C139.284 175.92 143.514 174.18 149.608 177.948L149.758 178.011C151.756 177.282 152.215 168.666 158.482 163.651Z"/>
	<path fill="white" transform="scale(1.6 1.6)" d="M121.742 288.465C128.728 283.718 136.561 280.05 143.697 275.399C139.363 295.871 137.991 316.706 139.808 337.542C140.22 342.269 143.019 355.646 142.635 358.702C142.293 361.43 125.348 400.314 123.818 401.794C121.554 395.522 121.072 384.58 119.681 377.632C119.205 375.253 116.573 363.326 115.912 361.367C123.838 354.901 120.131 347.413 119.775 338.455C119.181 323.543 118.534 303.099 121.742 288.465Z"/>
	<path fill="#FEB567" transform="scale(1.6 1.6)" d="M158.482 163.651C166.542 166.319 171.604 195.236 177.004 198.742C175.658 204.759 179.288 207.977 184.551 210.137C188.871 220.298 193.779 229.97 193.599 241.325C180.83 244.008 187.738 261.191 190.303 269.374C183.252 264.645 161.536 251.634 154.961 249.703C149.93 251.37 145.346 254.717 140.895 257.538L125.723 267.182C127.599 258.01 130.893 248.796 131.805 239.5C132.737 230.008 114.251 218.585 107.222 209.911L106.964 209.587C116.562 207.028 134.826 206.517 142.161 201.383C148.439 196.989 154.886 185.184 149.608 177.948L149.758 178.011C151.756 177.282 152.215 168.666 158.482 163.651Z"/>
	<path fill="#FEB567" transform="scale(1.6 1.6)" d="M152.32 378.439C157.386 389.148 162.157 404.657 168.98 414.081C173.998 416.68 188.869 419.017 195.449 420.454C187.112 424.933 167.464 440.854 182.042 449.638C183.662 450.613 184.932 450.216 186.654 449.771C191.342 452.956 195.911 456.04 199.781 460.24C202.112 462.769 204.633 467.233 207.331 469.107C210.188 481.11 215.87 481.609 225.707 486.858C239.391 494.159 277.56 509.624 293.567 506.178C301.192 504.537 316.659 468.353 320.265 460.107C323.216 467.509 338.659 503.455 345.625 506.149C354.261 509.488 387.46 499.023 396.687 495.688C393.882 506.251 373.984 523.529 363.897 528.284C365.484 529.186 366.572 531.729 367.498 533.337C363.869 536.724 363.789 538.82 364.14 543.38C360.462 546.618 356.272 548.949 351.938 551.192C341.636 558.342 346.177 556.275 344.3 566.71C338.591 566.437 333.081 580.421 319.826 579.93C313.426 579.693 298.163 573.229 294.341 567.338C296.805 562.65 293.779 557.188 289.847 554.568C287.867 553.706 285.974 552.832 284.127 551.709C286.524 537.285 285.117 534.553 271.528 530.691C253.464 525.558 235.799 518.321 219.525 508.928C212.032 504.604 205.968 497.782 196.912 498.814C178.678 487.386 183.909 496.171 170.986 477.658L170.735 477.302C171.155 473.699 171.352 470.458 170.847 466.854C167.58 463.397 159.74 458.452 154.584 459.982C151.093 461.017 130.99 472.503 127.204 475.054C136.073 437.476 136.359 446.695 107.074 421.462C115.493 420.046 127.57 419.455 135.33 415.929C139.122 414.206 150.19 383.883 152.32 378.439Z"/>
	<path fill="#FFD59D" transform="scale(1.6 1.6)" d="M327.605 541.637C330.71 539.456 356.549 531.573 363.897 528.284C365.484 529.186 366.572 531.729 367.498 533.337C363.869 536.724 363.789 538.82 364.14 543.38C360.462 546.618 356.272 548.949 351.938 551.192C342.71 551.624 335.754 545.092 327.605 541.637Z"/>
	<path fill="#E66968" transform="scale(1.6 1.6)" d="M289.847 554.568C305.622 545.76 301.977 534.782 327.605 541.637C335.754 545.092 342.71 551.624 351.938 551.192C341.636 558.342 346.177 556.275 344.3 566.71C338.591 566.437 333.081 580.421 319.826 579.93C313.426 579.693 298.163 573.229 294.341 567.338C296.805 562.65 293.779 557.188 289.847 554.568Z"/>
	<path fill="#E66968" transform="scale(1.6 1.6)" d="M187.234 147.324C190.673 164.145 202.756 153.955 210.569 149.113C233.622 134.824 260.492 126.939 287.179 123.189C315.448 119.217 307.596 119.257 320.269 88.9693C335.211 124.601 325.132 119.047 359.136 124.815C369.927 126.645 382.498 133.305 388.67 122.056C394.141 123.965 406.343 131.18 411.542 129.262C408.716 136.438 412.362 141.852 419.92 143.245C417.256 147.179 431.422 156.768 435.304 160.507C441.79 166.754 455.231 182.028 461.923 186.171L461.531 186.63C461.75 194.29 470.759 198.198 476.1 192.733L476.625 192.898L477.219 192.129C483.424 198.787 491.476 201.101 498.443 206.52C504.662 211.357 510.513 221.115 514.477 227.841C504.794 239.412 509.472 248.043 513.847 261.752C508.947 259.614 503.931 257.717 499.064 255.518C485.129 249.223 488.77 246.697 473.992 255.883C466.977 260.244 458.067 266.443 450.445 269.196C451.208 263.503 455.962 249.799 452.294 245.16C439.867 229.444 435.665 259.942 434.212 265.752C432.568 272.33 423.771 294.109 437.864 294.113C443.868 294.116 473.944 274.506 481.371 270.886C481.973 294.263 489.12 328.44 482.213 350.602C481.339 353.405 479.15 355.745 477.921 358.409C472.314 370.566 466.979 391.084 459.811 400.814C450.995 402.882 434.439 402.629 429.346 411.098C422.229 422.933 439.109 435.633 446.931 420.88C447.666 424.006 452.848 425.075 451.12 428.218C446.082 437.383 451.695 465.566 446.503 466.676C442.88 467.499 433.887 470.352 431.703 473.478C429.566 483.53 405.042 491.964 396.687 495.688C387.46 499.023 354.261 509.488 345.625 506.149C338.659 503.455 323.216 467.509 320.265 460.107C316.659 468.353 301.192 504.537 293.567 506.178C277.56 509.624 239.391 494.159 225.707 486.858C215.87 481.609 210.188 481.11 207.331 469.107C204.633 467.233 202.112 462.769 199.781 460.24C195.911 456.04 191.342 452.956 186.654 449.771C192.013 446.652 199.4 438.412 204.347 433.785C209.908 428.583 220.503 422.346 215.084 413.544C208.42 402.719 192.551 404.228 181.958 401.393L181.506 401.269C172.914 391.278 168.144 367.236 158.958 353.335C151.976 342.77 158.053 283.457 160.438 270.636C168.512 275.421 195.423 293.035 202.84 294.004C218.678 296.072 205.264 262.697 204.07 257.809C202.307 250.595 203.263 241.797 193.599 241.325C193.779 229.97 188.871 220.298 184.551 210.137C179.288 207.977 175.658 204.759 177.004 198.742C171.604 195.236 166.542 166.319 158.482 163.651C167.298 157.542 178.572 156.399 187.234 147.324ZM311.071 221.069C269.405 223.63 244.336 251.261 244.051 292.816C244.009 298.862 244.704 305.26 242.793 311.076C238.112 325.323 230.057 343.237 223.803 356.872C220.217 364.69 210.718 381.49 211.318 390.13C212.899 412.912 230.377 418.592 249.225 418.537L330.234 418.492L379.854 418.493C387.073 418.499 398.257 419.377 404.941 417.93C417.525 415.207 429.86 403.964 429.803 390.377C429.771 382.758 415.507 351.691 411.296 342.44C402.497 323.109 396.472 315.773 396.393 294.526C396.194 241.05 363.036 219.337 312.625 221.009L311.071 221.069Z"/>
	<path fill="#F6A68E" transform="scale(1.6 1.6)" d="M368.043 157.642C371.173 156.749 373.65 155.262 376.431 153.652C376.063 154.607 375.752 155.758 375.246 156.637C374.372 159.595 374.852 156.181 375.028 155.2C370.441 157.856 366.252 159.463 361.12 160.864C361.335 161.816 361.845 163.077 361.464 163.962C360.495 161.493 359.456 159.05 358.441 156.6C361.578 155.588 364.961 156.871 368.043 157.642Z"/>
	<path transform="scale(1.6 1.6)" d="M376.431 153.652C378.181 151.502 380.039 149.048 383.021 148.786C395.803 147.663 434.076 171.821 446.51 182.8C449.061 185.052 453.235 189.662 455.908 191.264C456.401 194.64 449.485 200.605 446.944 202.299C441.299 199.387 435.777 194.433 430.549 190.656C419.745 182.852 407.978 175.777 395.646 170.623C388.583 167.672 375.547 166.181 375.246 156.637C375.752 155.758 376.063 154.607 376.431 153.652Z"/>
	<path transform="scale(1.6 1.6)" d="M281.899 156.776C289.718 141.854 299.792 147.894 298.569 156.746C297.973 161.055 295.835 165.523 294.309 169.6L287.349 188.161C294.382 184.053 313.342 169.091 319.294 168.423C325.271 167.752 347.83 184.662 353.093 188.722C349.336 179.878 345.994 170.584 342.987 161.458C340.511 153.941 342.74 150.066 350.323 147.622C354.875 149.332 356.429 152.462 358.441 156.6C359.456 159.05 360.495 161.493 361.464 163.962C364.355 175.507 370.089 186.549 372.855 199.376C363.793 222.011 356.413 210.86 341.372 200.4C334.205 195.416 326.901 190.633 319.559 185.911C314.081 190.016 285.492 210.65 280.78 212.104C275.352 213.778 269.437 209.581 267.919 204.405C265.591 196.468 277.908 164.437 281.899 156.776Z"/>
	<path transform="scale(1.6 1.6)" d="M287.149 489.781C295.195 476.431 303.456 453.161 312.17 442.174C317.3 435.705 324.553 436.755 329.075 443.56C338.053 457.07 344.155 475.219 353.203 489.839C373.359 486.581 392.644 481.197 410.341 470.717C417.689 466.365 429.875 456.833 431.703 473.478C429.566 483.53 405.042 491.964 396.687 495.688C387.46 499.023 354.261 509.488 345.625 506.149C338.659 503.455 323.216 467.509 320.265 460.107C316.659 468.353 301.192 504.537 293.567 506.178C277.56 509.624 239.391 494.159 225.707 486.858C215.87 481.609 210.188 481.11 207.331 469.107C208.949 464.442 213.67 463.423 218.063 463.004C223.196 464.842 228.571 469.666 233.425 472.459C248.253 480.991 269.716 488.34 287.149 489.781Z"/>
	<path fill="#FEB567" transform="scale(1.6 1.6)" d="M187.234 147.324C190.673 164.145 202.756 153.955 210.569 149.113C233.622 134.824 260.492 126.939 287.179 123.189C315.448 119.217 307.596 119.257 320.269 88.9693C335.211 124.601 325.132 119.047 359.136 124.815C369.927 126.645 382.498 133.305 388.67 122.056C394.141 123.965 406.343 131.18 411.542 129.262C408.716 136.438 412.362 141.852 419.92 143.245C417.256 147.179 431.422 156.768 435.304 160.507C441.79 166.754 455.231 182.028 461.923 186.171L461.531 186.63C457.518 184.399 453.704 179.929 450.542 176.612C442.451 184.94 453.45 184.974 456.04 191.028L455.908 191.264C453.235 189.662 449.061 185.052 446.51 182.8C434.076 171.821 395.803 147.663 383.021 148.786C380.039 149.048 378.181 151.502 376.431 153.652C373.65 155.262 371.173 156.749 368.043 157.642C364.961 156.871 361.578 155.588 358.441 156.6C356.429 152.462 354.875 149.332 350.323 147.622C342.74 150.066 340.511 153.941 342.987 161.458C345.994 170.584 349.336 179.878 353.093 188.722C347.83 184.662 325.271 167.752 319.294 168.423C313.342 169.091 294.382 184.053 287.349 188.161L294.309 169.6C295.835 165.523 297.973 161.055 298.569 156.746C299.792 147.894 289.718 141.854 281.899 156.776C278.726 157.373 266.696 157.984 263.736 157.052C263.994 166.24 250.499 168.042 242.828 171.564C229.222 177.81 216.345 185.908 204.687 195.276C199.915 199.111 190.208 209.657 184.551 210.137C179.288 207.977 175.658 204.759 177.004 198.742C171.604 195.236 166.542 166.319 158.482 163.651C167.298 157.542 178.572 156.399 187.234 147.324Z"/>
	<path transform="scale(1.6 1.6)" d="M177.004 198.742C181.818 188.045 221.93 163.4 232.098 158.289C243.464 152.575 258.376 141.517 263.736 157.052C263.994 166.24 250.499 168.042 242.828 171.564C229.222 177.81 216.345 185.908 204.687 195.276C199.915 199.111 190.208 209.657 184.551 210.137C179.288 207.977 175.658 204.759 177.004 198.742Z"/>
	<path transform="scale(1.6 1.6)" d="M311.071 221.069L312.625 221.009C363.036 219.337 396.194 241.05 396.393 294.526C396.472 315.773 402.497 323.109 411.296 342.44C415.507 351.691 429.771 382.758 429.803 390.377C429.86 403.964 417.525 415.207 404.941 417.93C398.257 419.377 387.073 418.499 379.854 418.493L330.234 418.492L249.225 418.537C230.377 418.592 212.899 412.912 211.318 390.13C210.718 381.49 220.217 364.69 223.803 356.872C230.057 343.237 238.112 325.323 242.793 311.076C244.704 305.26 244.009 298.862 244.051 292.816C244.336 251.261 269.405 223.63 311.071 221.069ZM348.163 315.356C342.25 317.688 337.966 323.107 334.909 328.487C341.556 328.458 348.163 327.748 354.802 327.71C359.169 327.728 363.542 327.569 367.836 328.479C361.444 323.037 356.065 318.386 348.163 315.356ZM290.343 315.951C283.558 317.755 278.363 324.169 273.136 328.535C278.424 327.801 283.615 327.681 288.942 327.659C294.466 327.688 300.181 327.503 305.676 328.135C302.042 323.599 297.008 315.635 290.343 315.951ZM318.548 337.891C316.109 344.542 312.492 349.627 307.802 354.921L308.8 355.778C313.658 348.334 320.759 346.148 328.425 351.685C333.515 355.362 333.512 362.433 335.773 367.808C336.105 366.034 334.693 363.108 334.09 361.426C336.016 360.405 337.86 359.518 339.954 358.894C341.3 359.278 342.624 359.748 343.952 360.193L344.355 359.839C331.925 354.267 326.911 354.135 322.408 338.116C321.693 335.573 320.088 336.842 318.548 337.891Z"/>
	<path fill="white" transform="scale(1.6 1.6)" d="M320.144 369.895C321.385 371.155 326.237 383.415 327.432 386.155C325.143 389.77 322.674 393.269 320.397 396.898C318.019 393.262 315.433 389.771 312.88 386.257C315.156 380.741 317.913 375.448 320.144 369.895Z"/>
	<path fill="white" transform="scale(1.6 1.6)" d="M253.587 378.828C265.467 365.182 295.03 363.66 307.802 354.921L308.8 355.778C305.817 361.304 303.921 367.315 301.026 372.876C298.754 377.241 291.163 384.208 293.984 389.588C295.96 393.356 301.873 398.446 304.902 402.188L275.805 402.171C268.648 394.156 260.374 387.202 253.587 378.828Z"/>
	<path fill="white" transform="scale(1.6 1.6)" d="M339.954 358.894C341.3 359.278 342.624 359.748 343.952 360.193L344.355 359.839C356.917 363.273 376.986 369.457 386.751 378.202C381.848 384.933 370.264 397.814 363.493 402.465C353.953 401.842 344.374 402.435 334.826 402.203C338.58 396.106 344.893 392.606 347.335 385.665C344.48 379.043 337.464 375.307 335.773 367.808C336.105 366.034 334.693 363.108 334.09 361.426C336.016 360.405 337.86 359.518 339.954 358.894Z"/>
	<path fill="white" transform="scale(1.6 1.6)" d="M310.522 237.322C314.818 236.612 312.282 268.559 312.262 279.902C296.111 275.368 279.839 276.749 264.608 283.285L260.751 285.069C264.867 256.165 280.849 239.897 310.522 237.322Z"/>
	<path fill="white" transform="scale(1.6 1.6)" d="M327.952 237.179C355.725 236.806 374.898 255.909 379.473 282.57C379.69 283.835 380.064 285.151 379.28 286.254L378.264 285.658C362.844 275.58 345.191 276.85 327.922 279.599C328.438 265.518 328.116 251.269 327.952 237.179Z"/>
	<path fill="white" transform="scale(1.6 1.6)" d="M261.551 308.914C272.006 290.141 292.591 291.769 310.882 295.563C322.071 297.884 323.635 297.393 334.756 294.505C352.718 289.84 374.779 292.06 381.093 312.46C388.445 327.012 394.257 342.709 400.446 357.776C404.868 368.541 410.015 379.226 413.635 390.278C408.617 404.03 399.306 402.749 386.367 403.168C392.261 395.634 399.958 390.571 404.784 384.382C402.872 374.815 396.873 364.739 393.192 355.576C384.011 332.722 376.342 297.806 343.973 300.138C330.983 303.64 329.329 310.751 320.694 318.065C316.925 315.846 314.261 312.405 311.252 309.32C296.455 294.145 277.512 299.436 265.458 314.436C262.997 318.337 236.643 378.669 235.961 384.073C237.316 386.197 251.836 400.18 254.442 402.27C242.447 402.8 231.233 403.601 227.3 389.981C228.529 385.02 230.934 380.448 232.918 375.762L244.563 348.687C250.255 335.468 254.822 321.659 261.551 308.914Z"/>
</svg>
